<svg width="52" height="11" viewBox="0 0 52 11" fill="none" xmlns="http://www.w3.org/2000/svg">
<path d="M6.54155 3H5.66087C5.60878 2.74669 5.51764 2.52415 5.38743 2.33239C5.25959 2.14062 5.10334 1.97964 4.91868 1.84943C4.73639 1.71686 4.53397 1.61742 4.31143 1.55114C4.0889 1.48485 3.85689 1.4517 3.61541 1.4517C3.17507 1.4517 2.77616 1.56297 2.41868 1.78551C2.06357 2.00805 1.78066 2.33594 1.56996 2.76918C1.36162 3.20241 1.25746 3.7339 1.25746 4.36364C1.25746 4.99337 1.36162 5.52486 1.56996 5.9581C1.78066 6.39134 2.06357 6.71922 2.41868 6.94176C2.77616 7.1643 3.17507 7.27557 3.61541 7.27557C3.85689 7.27557 4.0889 7.24242 4.31143 7.17614C4.53397 7.10985 4.73639 7.0116 4.91868 6.88139C5.10334 6.74882 5.25959 6.58665 5.38743 6.39489C5.51764 6.20076 5.60878 5.97822 5.66087 5.72727H6.54155C6.47526 6.09896 6.35452 6.43158 6.17933 6.72514C6.00414 7.0187 5.78634 7.26847 5.52592 7.47443C5.26551 7.67803 4.97313 7.8331 4.64879 7.93963C4.32682 8.04616 3.98236 8.09943 3.61541 8.09943C2.99515 8.09943 2.44354 7.94792 1.96058 7.64489C1.47763 7.34186 1.09766 6.91098 0.820668 6.35227C0.543679 5.79356 0.405185 5.13068 0.405185 4.36364C0.405185 3.59659 0.543679 2.93371 0.820668 2.375C1.09766 1.81629 1.47763 1.38542 1.96058 1.08239C2.44354 0.779356 2.99515 0.627841 3.61541 0.627841C3.98236 0.627841 4.32682 0.681108 4.64879 0.787642C4.97313 0.894176 5.26551 1.05043 5.52592 1.25639C5.78634 1.45999 6.00414 1.70857 6.17933 2.00213C6.35452 2.29332 6.47526 2.62595 6.54155 3ZM10.0669 8.11364C9.57451 8.11364 9.14246 7.99645 8.77077 7.76207C8.40146 7.5277 8.11263 7.19981 7.9043 6.77841C7.69833 6.35701 7.59535 5.86458 7.59535 5.30114C7.59535 4.73295 7.69833 4.23698 7.9043 3.81321C8.11263 3.38944 8.40146 3.06037 8.77077 2.82599C9.14246 2.59162 9.57451 2.47443 10.0669 2.47443C10.5594 2.47443 10.9902 2.59162 11.3596 2.82599C11.7312 3.06037 12.0201 3.38944 12.226 3.81321C12.4344 4.23698 12.5385 4.73295 12.5385 5.30114C12.5385 5.86458 12.4344 6.35701 12.226 6.77841C12.0201 7.19981 11.7312 7.5277 11.3596 7.76207C10.9902 7.99645 10.5594 8.11364 10.0669 8.11364ZM10.0669 7.3608C10.441 7.3608 10.7488 7.26491 10.9902 7.07315C11.2317 6.88139 11.4105 6.62926 11.5265 6.31676C11.6425 6.00426 11.7005 5.66572 11.7005 5.30114C11.7005 4.93655 11.6425 4.59683 11.5265 4.28196C11.4105 3.96709 11.2317 3.71259 10.9902 3.51847C10.7488 3.32434 10.441 3.22727 10.0669 3.22727C9.69289 3.22727 9.38512 3.32434 9.14364 3.51847C8.90217 3.71259 8.72343 3.96709 8.60742 4.28196C8.49142 4.59683 8.43342 4.93655 8.43342 5.30114C8.43342 5.66572 8.49142 6.00426 8.60742 6.31676C8.72343 6.62926 8.90217 6.88139 9.14364 7.07315C9.38512 7.26491 9.69289 7.3608 10.0669 7.3608ZM14.2182 2.54545L15.525 4.77557L16.8319 2.54545H17.7978L16.0364 5.27273L17.7978 8H16.8319L15.525 5.88352L14.2182 8H13.2523L14.9853 5.27273L13.2523 2.54545H14.2182ZM18.9936 10.0455V2.54545H19.8033V3.41193H19.9027C19.9643 3.31723 20.0495 3.1965 20.1584 3.04972C20.2696 2.90057 20.4283 2.76799 20.6342 2.65199C20.8426 2.53362 21.1243 2.47443 21.4794 2.47443C21.9387 2.47443 22.3435 2.58925 22.6939 2.81889C23.0443 3.04853 23.3177 3.37405 23.5142 3.79545C23.7107 4.21686 23.8089 4.71402 23.8089 5.28693C23.8089 5.86458 23.7107 6.36529 23.5142 6.78906C23.3177 7.21046 23.0455 7.53717 22.6974 7.76918C22.3494 7.99882 21.9482 8.11364 21.4936 8.11364C21.1432 8.11364 20.8627 8.05563 20.652 7.93963C20.4413 7.82126 20.2791 7.6875 20.1655 7.53835C20.0518 7.38684 19.9643 7.26136 19.9027 7.16193H19.8317V10.0455H18.9936ZM19.8175 5.27273C19.8175 5.68466 19.8778 6.04806 19.9986 6.36293C20.1193 6.67543 20.2957 6.92045 20.5277 7.09801C20.7597 7.2732 21.0438 7.3608 21.38 7.3608C21.7304 7.3608 22.0227 7.26847 22.2571 7.08381C22.4938 6.89678 22.6714 6.64583 22.7898 6.33097C22.9105 6.01373 22.9709 5.66098 22.9709 5.27273C22.9709 4.8892 22.9117 4.54356 22.7933 4.2358C22.6773 3.92566 22.5009 3.68063 22.2642 3.50071C22.0298 3.31842 21.7351 3.22727 21.38 3.22727C21.0391 3.22727 20.7526 3.31368 20.5206 3.48651C20.2886 3.65696 20.1134 3.89607 19.995 4.20384C19.8767 4.50923 19.8175 4.86553 19.8175 5.27273ZM26.6925 8.12784C26.3468 8.12784 26.0331 8.06274 25.7514 7.93253C25.4697 7.79995 25.246 7.60938 25.0803 7.3608C24.9145 7.10985 24.8317 6.80682 24.8317 6.4517C24.8317 6.1392 24.8932 5.88589 25.0163 5.69176C25.1394 5.49527 25.304 5.34138 25.5099 5.23011C25.7159 5.11884 25.9432 5.03598 26.1918 4.98153C26.4427 4.92472 26.6948 4.87973 26.9482 4.84659C27.2796 4.80398 27.5483 4.77202 27.7543 4.75071C27.9626 4.72704 28.1141 4.68797 28.2088 4.63352C28.3059 4.57907 28.3544 4.48437 28.3544 4.34943V4.32102C28.3544 3.97064 28.2585 3.69839 28.0668 3.50426C27.8774 3.31013 27.5897 3.21307 27.2038 3.21307C26.8037 3.21307 26.4901 3.30066 26.2628 3.47585C26.0355 3.65104 25.8757 3.83807 25.7834 4.03693L24.9879 3.75284C25.13 3.4214 25.3194 3.16335 25.5561 2.97869C25.7952 2.79167 26.0556 2.66146 26.3374 2.58807C26.6214 2.51231 26.9008 2.47443 27.1754 2.47443C27.3506 2.47443 27.5518 2.49574 27.7791 2.53835C28.0088 2.5786 28.2301 2.66264 28.4432 2.79048C28.6586 2.91832 28.8374 3.11127 28.9794 3.36932C29.1214 3.62737 29.1925 3.97301 29.1925 4.40625V8H28.3544V7.26136H28.3118C28.255 7.37973 28.1603 7.50639 28.0277 7.64134C27.8951 7.77628 27.7188 7.8911 27.4986 7.9858C27.2784 8.08049 27.0097 8.12784 26.6925 8.12784ZM26.8203 7.375C27.1518 7.375 27.4311 7.3099 27.6584 7.17969C27.888 7.04948 28.0608 6.88139 28.1768 6.67543C28.2952 6.46946 28.3544 6.25284 28.3544 6.02557V5.25852C28.3189 5.30114 28.2408 5.3402 28.12 5.37571C28.0017 5.40885 27.8643 5.43845 27.7081 5.46449C27.5542 5.48816 27.4039 5.50947 27.2571 5.52841C27.1127 5.54498 26.9955 5.55919 26.9055 5.57102C26.6877 5.59943 26.4841 5.6456 26.2947 5.70952C26.1077 5.77107 25.9562 5.86458 25.8402 5.99006C25.7266 6.11316 25.6697 6.28125 25.6697 6.49432C25.6697 6.78551 25.7775 7.00568 25.9929 7.15483C26.2107 7.30161 26.4865 7.375 26.8203 7.375ZM34.3727 4.8892V5.67045H31.3613V4.8892H34.3727ZM31.5602 2.54545V8H30.7221V2.54545H31.5602ZM35.0119 2.54545V8H34.1738V2.54545H35.0119ZM37.3805 6.7642L40.0083 2.54545H40.9743V8H40.1362V3.78125L37.5225 8H36.5424V2.54545H37.3805V6.7642ZM41.767 3.3267V2.54545H46.1989V3.3267H44.4091V8H43.571V3.3267H41.767ZM48.1458 4.51989H49.7083C50.3475 4.51989 50.8364 4.68205 51.1749 5.00639C51.5134 5.33073 51.6827 5.74148 51.6827 6.23864C51.6827 6.56534 51.6069 6.86245 51.4554 7.12997C51.3039 7.39512 51.0814 7.60701 50.7878 7.76562C50.4943 7.92188 50.1344 8 49.7083 8H47.4213V2.54545H48.2594V7.21875H49.7083C50.0397 7.21875 50.312 7.13116 50.525 6.95597C50.7381 6.78078 50.8446 6.55587 50.8446 6.28125C50.8446 5.99242 50.7381 5.75687 50.525 5.57457C50.312 5.39228 50.0397 5.30114 49.7083 5.30114H48.1458V4.51989Z" fill="white"/>
</svg>
